{
  "accessors": [
    {
      "bufferView": 2,
      "componentType": 5126,
      "count": 1508,
      "max": [
        1.7923749685287476,
        2.1322190761566162,
        -1.7795350551605225
      ],
      "min": [
        -1.6615070104598999,
        1.4098960161209106,
        -3.020503044128418
      ],
      "type": "VEC3"
    },
    {
      "bufferView": 2,
      "byteOffset": 18096,
      "componentType": 5126,
      "count": 1508,
      "max": [
        0.99938374757766724,
        0.99942976236343384,
        0.99080157279968262
      ],
      "min": [
        -0.99907034635543823,
        -0.9982866644859314,
        -0.99921125173568726
      ],
      "type": "VEC3"
    },
    {
      "bufferView": 3,
      "componentType": 5126,
      "count": 1508,
      "max": [
        0.97037959098815918,
        0.99982929229736328,
        0.97166937589645386,
        1
      ],
      "min": [
        -0.96188962459564209,
        -0.99988597631454468,
        -0.99977701902389526,
        -1
      ],
      "type": "VEC4"
    },
    {
      "bufferView": 1,
      "componentType": 5126,
      "count": 1508,
      "max": [
        0.50609701871871948,
        0.50448501110076904
      ],
      "min": [
        0.011823000386357307,
        0.010211000218987465
      ],
      "type": "VEC2"
    },
    {
      "bufferView": 0,
      "componentType": 5125,
      "count": 4872,
      "max": [
        1507
      ],
      "min": [
        0
      ],
      "type": "SCALAR"
    },
    {
      "bufferView": 2,
      "byteOffset": 36192,
      "componentType": 5126,
      "count": 458,
      "max": [
        1.9992460012435913,
        2.5934510231018066,
        3.3000009059906006
      ],
      "min": [
        -1.9992460012435913,
        1.2009589672088623,
        -3.3000009059906006
      ],
      "type": "VEC3"
    },
    {
      "bufferView": 2,
      "byteOffset": 41688,
      "componentType": 5126,
      "count": 458,
      "max": [
        1,
        1,
        1
      ],
      "min": [
        -1,
        0,
        -1
      ],
      "type": "VEC3"
    },
    {
      "bufferView": 3,
      "byteOffset": 24128,
      "componentType": 5126,
      "count": 458,
      "max": [
        0.73828637599945068,
        1,
        0.91299396753311157,
        1
      ],
      "min": [
        -1,
        -1,
        -1,
        1
      ],
      "type": "VEC4"
    },
    {
      "bufferView": 1,
      "byteOffset": 12064,
      "componentType": 5126,
      "count": 458,
      "max": [
        0.89311897754669189,
        0.47387400269508362
      ],
      "min": [
        0.51833498477935791,
        0.012476000003516674
      ],
      "type": "VEC2"
    },
    {
      "bufferView": 0,
      "byteOffset": 19488,
      "componentType": 5125,
      "count": 1704,
      "max": [
        457
      ],
      "min": [
        0
      ],
      "type": "SCALAR"
    },
    {
      "bufferView": 2,
      "byteOffset": 47184,
      "componentType": 5126,
      "count": 1202,
      "max": [
        2,
        1.8362109661102295,
        3.3000009059906006
      ],
      "min": [
        -2,
        -0.0029370000120252371,
        -3.3000009059906006
      ],
      "type": "VEC3"
    },
    {
      "bufferView": 2,
      "byteOffset": 61608,
      "componentType": 5126,
      "count": 1202,
      "max": [
        1,
        1,
        1
      ],
      "min": [
        -1,
        -1,
        -1
      ],
      "type": "VEC3"
    },
    {
      "bufferView": 3,
      "byteOffset": 31456,
      "componentType": 5126,
      "count": 1202,
      "max": [
        1,
        1,
        1,
        1
      ],
      "min": [
        -1,
        -1,
        -1,
        -1
      ],
      "type": "VEC4"
    },
    {
      "bufferView": 1,
      "byteOffset": 15728,
      "componentType": 5126,
      "count": 1202,
      "max": [
        0.98166501522064209,
        0.47580501437187195
      ],
      "min": [
        0.51833498477935791,
        0.012476000003516674
      ],
      "type": "VEC2"
    },
    {
      "bufferView": 0,
      "byteOffset": 26304,
      "componentType": 5125,
      "count": 5064,
      "max": [
        1201
      ],
      "min": [
        0
      ],
      "type": "SCALAR"
    },
    {
      "bufferView": 2,
      "byteOffset": 76032,
      "componentType": 5126,
      "count": 1225,
      "max": [
        2.23288893699646,
        1.6789740324020386,
        3.1285140514373779
      ],
      "min": [
        -2.3625540733337402,
        0.052186999469995499,
        -1.9359250068664551
      ],
      "type": "VEC3"
    },
    {
      "bufferView": 2,
      "byteOffset": 90732,
      "componentType": 5126,
      "count": 1225,
      "max": [
        0.99994009733200073,
        0.99999946355819702,
        0.99999576807022095
      ],
      "min": [
        -0.99995654821395874,
        -0.99991202354431152,
        -0.99887549877166748
      ],
      "type": "VEC3"
    },
    {
      "bufferView": 3,
      "byteOffset": 50688,
      "componentType": 5126,
      "count": 1225,
      "max": [
        0.99999892711639404,
        0.99999088048934937,
        0.9999239444732666,
        1
      ],
      "min": [
        -0.9915737509727478,
        -0.99980217218399048,
        -0.99837738275527954,
        -1
      ],
      "type": "VEC4"
    },
    {
      "bufferView": 1,
      "byteOffset": 25344,
      "componentType": 5126,
      "count": 1225,
      "max": [
        0.98035198450088501,
        0.99383997917175293
      ],
      "min": [
        0.48268899321556091,
        0.49617600440979004
      ],
      "type": "VEC2"
    },
    {
      "bufferView": 0,
      "byteOffset": 46560,
      "componentType": 5125,
      "count": 5541,
      "max": [
        1224
      ],
      "min": [
        0
      ],
      "type": "SCALAR"
    },
    {
      "bufferView": 2,
      "byteOffset": 105432,
      "componentType": 5126,
      "count": 22,
      "max": [
        1.9097440242767334,
        1.4760099649429321,
        2.9255239963531494
      ],
      "min": [
        -1.9097440242767334,
        1.0993319749832153,
        -2.9255239963531494
      ],
      "type": "VEC3"
    },
    {
      "bufferView": 2,
      "byteOffset": 105696,
      "componentType": 5126,
      "count": 22,
      "max": [
        0.57735031843185425,
        0.57735031843185425,
        0.57735031843185425
      ],
      "min": [
        -0.57735031843185425,
        -0.57735031843185425,
        -0.57735031843185425
      ],
      "type": "VEC3"
    },
    {
      "bufferView": 3,
      "byteOffset": 70288,
      "componentType": 5126,
      "count": 22,
      "max": [
        0.81649661064147949,
        0.81649667024612427,
        0.40824833512306213,
        1
      ],
      "min": [
        -0.40824833512306213,
        -0.81649667024612427,
        -0.40824833512306213,
        1
      ],
      "type": "VEC4"
    },
    {
      "bufferView": 1,
      "byteOffset": 35144,
      "componentType": 5126,
      "count": 22,
      "max": [
        0.43867900967597961,
        0.95020699501037598
      ],
      "min": [
        0.021206999197602272,
        0.53273499011993408
      ],
      "type": "VEC2"
    },
    {
      "bufferView": 0,
      "byteOffset": 68724,
      "componentType": 5125,
      "count": 36,
      "max": [
        21
      ],
      "min": [
        0
      ],
      "type": "SCALAR"
    }
  ],
  "asset": {
    "extras": {
      "author": "rerwandi (https://sketchfab.com/rerwandi)",
      "license": "CC-BY-4.0 (http://creativecommons.org/licenses/by/4.0/)",
      "source": "https://sketchfab.com/3d-models/bed-352f853f03194e9dac551e2c8afe7d1a",
      "title": "Bed"
    },
    "generator": "Sketchfab-8.47.0",
    "version": "2.0"
  },
  "bufferViews": [
    {
      "buffer": 0,
      "byteLength": 68868,
      "byteOffset": 0,
      "name": "floatBufferViews",
      "target": 34963
    },
    {
      "buffer": 0,
      "byteLength": 35320,
      "byteOffset": 68868,
      "byteStride": 8,
      "name": "floatBufferViews",
      "target": 34962
    },
    {
      "buffer": 0,
      "byteLength": 105960,
      "byteOffset": 104188,
      "byteStride": 12,
      "name": "floatBufferViews",
      "target": 34962
    },
    {
      "buffer": 0,
      "byteLength": 70640,
      "byteOffset": 210148,
      "byteStride": 16,
      "name": "floatBufferViews",
      "target": 34962
    }
  ],
  "buffers": [
    {
      "byteLength": 280788,
      "uri": "scene.bin"
    }
  ],
  "images": [
    {
      "uri": "textures/Pillow_baseColor.jpeg"
    },
    {
      "uri": "textures/Pillow_metallicRoughness.png"
    },
    {
      "uri": "textures/Pillow_normal.png"
    },
    {
      "uri": "textures/Brown_Wood_baseColor.jpeg"
    },
    {
      "uri": "textures/Brown_Wood_metallicRoughness.png"
    },
    {
      "uri": "textures/Brown_Wood_normal.png"
    },
    {
      "uri": "textures/Blue_Wood_baseColor.jpeg"
    },
    {
      "uri": "textures/Blue_Wood_metallicRoughness.png"
    },
    {
      "uri": "textures/Blue_Wood_normal.png"
    },
    {
      "uri": "textures/Blanket_baseColor.jpeg"
    },
    {
      "uri": "textures/Blanket_metallicRoughness.png"
    },
    {
      "uri": "textures/Blanket_normal.png"
    },
    {
      "uri": "textures/Matress_baseColor.jpeg"
    },
    {
      "uri": "textures/Matress_metallicRoughness.png"
    },
    {
      "uri": "textures/Matress_normal.png"
    }
  ],
  "materials": [
    {
      "doubleSided": true,
      "emissiveFactor": [
        0,
        0,
        0
      ],
      "name": "Pillow",
      "normalTexture": {
        "index": 2,
        "scale": 1,
        "texCoord": 0
      },
      "occlusionTexture": {
        "index": 1,
        "strength": 1,
        "texCoord": 0
      },
      "pbrMetallicRoughness": {
        "baseColorFactor": [
          1,
          1,
          1,
          1
        ],
        "baseColorTexture": {
          "index": 0,
          "texCoord": 0
        },
        "metallicFactor": 1,
        "metallicRoughnessTexture": {
          "index": 1,
          "texCoord": 0
        },
        "roughnessFactor": 1
      }
    },
    {
      "doubleSided": true,
      "emissiveFactor": [
        0,
        0,
        0
      ],
      "name": "Brown_Wood",
      "normalTexture": {
        "index": 5,
        "scale": 1,
        "texCoord": 0
      },
      "occlusionTexture": {
        "index": 4,
        "strength": 1,
        "texCoord": 0
      },
      "pbrMetallicRoughness": {
        "baseColorFactor": [
          1,
          1,
          1,
          1
        ],
        "baseColorTexture": {
          "index": 3,
          "texCoord": 0
        },
        "metallicFactor": 1,
        "metallicRoughnessTexture": {
          "index": 4,
          "texCoord": 0
        },
        "roughnessFactor": 1
      }
    },
    {
      "doubleSided": true,
      "emissiveFactor": [
        0,
        0,
        0
      ],
      "name": "Blue_Wood",
      "normalTexture": {
        "index": 8,
        "scale": 1,
        "texCoord": 0
      },
      "occlusionTexture": {
        "index": 7,
        "strength": 1,
        "texCoord": 0
      },
      "pbrMetallicRoughness": {
        "baseColorFactor": [
          1,
          1,
          1,
          1
        ],
        "baseColorTexture": {
          "index": 6,
          "texCoord": 0
        },
        "metallicFactor": 1,
        "metallicRoughnessTexture": {
          "index": 7,
          "texCoord": 0
        },
        "roughnessFactor": 1
      }
    },
    {
      "doubleSided": true,
      "emissiveFactor": [
        0,
        0,
        0
      ],
      "name": "Blanket",
      "normalTexture": {
        "index": 11,
        "scale": 1,
        "texCoord": 0
      },
      "occlusionTexture": {
        "index": 10,
        "strength": 1,
        "texCoord": 0
      },
      "pbrMetallicRoughness": {
        "baseColorFactor": [
          1,
          1,
          1,
          1
        ],
        "baseColorTexture": {
          "index": 9,
          "texCoord": 0
        },
        "metallicFactor": 1,
        "metallicRoughnessTexture": {
          "index": 10,
          "texCoord": 0
        },
        "roughnessFactor": 1
      }
    },
    {
      "doubleSided": true,
      "emissiveFactor": [
        0,
        0,
        0
      ],
      "name": "Matress",
      "normalTexture": {
        "index": 14,
        "scale": 1,
        "texCoord": 0
      },
      "occlusionTexture": {
        "index": 13,
        "strength": 1,
        "texCoord": 0
      },
      "pbrMetallicRoughness": {
        "baseColorFactor": [
          1,
          1,
          1,
          1
        ],
        "baseColorTexture": {
          "index": 12,
          "texCoord": 0
        },
        "metallicFactor": 1,
        "metallicRoughnessTexture": {
          "index": 13,
          "texCoord": 0
        },
        "roughnessFactor": 1
      }
    }
  ],
  "meshes": [
    {
      "name": "defaultMaterial",
      "primitives": [
        {
          "attributes": {
            "NORMAL": 1,
            "POSITION": 0,
            "TANGENT": 2,
            "TEXCOORD_0": 3
          },
          "indices": 4,
          "material": 0,
          "mode": 4
        }
      ]
    },
    {
      "name": "defaultMaterial",
      "primitives": [
        {
          "attributes": {
            "NORMAL": 6,
            "POSITION": 5,
            "TANGENT": 7,
            "TEXCOORD_0": 8
          },
          "indices": 9,
          "material": 1,
          "mode": 4
        }
      ]
    },
    {
      "name": "defaultMaterial",
      "primitives": [
        {
          "attributes": {
            "NORMAL": 11,
            "POSITION": 10,
            "TANGENT": 12,
            "TEXCOORD_0": 13
          },
          "indices": 14,
          "material": 2,
          "mode": 4
        }
      ]
    },
    {
      "name": "defaultMaterial",
      "primitives": [
        {
          "attributes": {
            "NORMAL": 16,
            "POSITION": 15,
            "TANGENT": 17,
            "TEXCOORD_0": 18
          },
          "indices": 19,
          "material": 3,
          "mode": 4
        }
      ]
    },
    {
      "name": "defaultMaterial",
      "primitives": [
        {
          "attributes": {
            "NORMAL": 21,
            "POSITION": 20,
            "TANGENT": 22,
            "TEXCOORD_0": 23
          },
          "indices": 24,
          "material": 4,
          "mode": 4
        }
      ]
    }
  ],
  "nodes": [
    {
      "children": [
        1
      ],
      "name": "RootNode (gltf orientation matrix)",
      "rotation": [
        -0.70710678118654746,
        -0,
        -0,
        0.70710678118654757
      ]
    },
    {
      "children": [
        2
      ],
      "name": "RootNode (model correction matrix)"
    },
    {
      "children": [
        3
      ],
      "matrix": [
        1,
        0,
        0,
        0,
        0,
        -4.3711390063094768e-08,
        0.999999999999999,
        0,
        0,
        -0.999999999999999,
        -4.3711390063094768e-08,
        0,
        0,
        0,
        0,
        1
      ],
      "name": "Collada visual scene group"
    },
    {
      "children": [
        4,
        5,
        6,
        7,
        8
      ],
      "name": "Bed"
    },
    {
      "mesh": 0,
      "name": "defaultMaterial"
    },
    {
      "mesh": 1,
      "name": "defaultMaterial"
    },
    {
      "mesh": 2,
      "name": "defaultMaterial"
    },
    {
      "mesh": 3,
      "name": "defaultMaterial"
    },
    {
      "mesh": 4,
      "name": "defaultMaterial"
    }
  ],
  "samplers": [
    {
      "magFilter": 9729,
      "minFilter": 9987,
      "wrapS": 10497,
      "wrapT": 10497
    }
  ],
  "scene": 0,
  "scenes": [
    {
      "name": "OSG_Scene",
      "nodes": [
        0
      ]
    }
  ],
  "textures": [
    {
      "sampler": 0,
      "source": 0
    },
    {
      "sampler": 0,
      "source": 1
    },
    {
      "sampler": 0,
      "source": 2
    },
    {
      "sampler": 0,
      "source": 3
    },
    {
      "sampler": 0,
      "source": 4
    },
    {
      "sampler": 0,
      "source": 5
    },
    {
      "sampler": 0,
      "source": 6
    },
    {
      "sampler": 0,
      "source": 7
    },
    {
      "sampler": 0,
      "source": 8
    },
    {
      "sampler": 0,
      "source": 9
    },
    {
      "sampler": 0,
      "source": 10
    },
    {
      "sampler": 0,
      "source": 11
    },
    {
      "sampler": 0,
      "source": 12
    },
    {
      "sampler": 0,
      "source": 13
    },
    {
      "sampler": 0,
      "source": 14
    }
  ]
}

